<svg width="39" height="37" viewBox="0 0 39 37" fill="none" xmlns="http://www.w3.org/2000/svg">
<g clip-path="url(#clip0_509_36)">
<path d="M19.4787 0.203369C8.83949 0.203369 0.214844 8.51569 0.214844 18.7693C0.214844 27.4281 6.36515 34.7019 14.685 36.7553C14.6794 34.6097 14.6722 31.978 14.6679 31.158C9.10876 32.3232 7.9358 28.8857 7.9358 28.8857C7.02697 26.6597 5.71703 26.0675 5.71703 26.0675C3.90366 24.8723 5.85359 24.8967 5.85359 24.8967C7.86003 25.0323 8.91697 26.8814 8.91697 26.8814C10.6991 29.8255 13.5917 28.9742 14.7321 28.4824C14.9115 27.238 15.429 26.388 16.0009 25.9071C11.5625 25.4202 6.89641 23.7688 6.89641 16.3894C6.89641 14.2868 7.67724 12.5689 8.9555 11.2201C8.74788 10.7348 8.0638 8.77602 9.149 6.12316C9.149 6.12316 10.8271 5.60575 14.6456 8.09737C16.2398 7.67053 17.9492 7.45649 19.6474 7.44918C21.3456 7.45649 23.0562 7.67053 24.6534 8.09737C28.4677 5.60575 30.1432 6.12316 30.1432 6.12316C31.231 8.77602 30.5469 10.7348 30.3393 11.2201C31.6205 12.5689 32.3958 14.2868 32.3958 16.3894C32.3958 23.7867 27.7211 25.4149 23.2711 25.8921C23.9877 26.4899 24.6264 27.6616 24.6264 29.4583C24.6264 30.8851 24.6196 34.1699 24.6132 36.6631C32.7584 34.4968 38.7426 27.3087 38.7426 18.7693C38.7426 8.51569 30.1179 0.203369 19.4787 0.203369Z" fill="white"/>
</g>
<defs>
<clipPath id="clip0_509_36">
<rect width="39" height="37" fill="white"/>
</clipPath>
</defs>
</svg>
