<svg width="48" height="51" viewBox="0 0 48 51" fill="none" xmlns="http://www.w3.org/2000/svg">
<path d="M35.3144 38.9397C32.3138 42.071 28.244 43.8302 24.0004 43.8302C19.7568 43.8302 15.6871 42.071 12.6864 38.9397C9.68575 35.8083 8 31.5612 8 27.1327C8 22.7043 9.68575 18.4572 12.6864 15.3258C12.6864 15.3258 14.0004 18.7842 18.0004 20.8713C18.0004 16.6971 19.0004 10.4357 23.9724 6.26141C28.0004 10.4357 32.1804 12.0574 35.3124 15.3258C36.8007 16.8745 37.981 18.7148 38.7856 20.741C39.5901 22.7673 40.003 24.9395 40.0004 27.1327C40.0032 29.3259 39.5907 31.498 38.7865 33.5242C37.9823 35.5504 36.8023 37.3908 35.3144 38.9397Z" stroke="black" stroke-width="3" stroke-linecap="round" stroke-linejoin="round"/>
<path d="M19.758 33.6466C20.4548 34.374 21.3125 34.911 22.2554 35.2102C23.1983 35.5095 24.1973 35.5618 25.1641 35.3624C26.1309 35.1631 27.0358 34.7183 27.7988 34.0674C28.5618 33.4164 29.1594 32.5794 29.5388 31.6302C29.9182 30.681 30.0677 29.6488 29.9741 28.625C29.8805 27.6012 29.5467 26.6172 29.0021 25.76C28.4576 24.9028 27.7191 24.1988 26.8519 23.7102C25.9847 23.2216 25.0155 22.9634 24.03 22.9584L22 29.2198H18C18 30.8228 18.586 32.4257 19.758 33.6466Z" stroke="black" stroke-width="3" stroke-linecap="round" stroke-linejoin="round"/>
</svg>
