<svg width="45" height="44" viewBox="0 0 45 44" fill="none" xmlns="http://www.w3.org/2000/svg">
<path d="M15.4687 4.58325C9.52406 4.58325 4.6875 9.31234 4.6875 15.1249V28.8749C4.6875 34.6875 9.52406 39.4166 15.4687 39.4166H29.5312C35.4759 39.4166 40.3125 34.6875 40.3125 28.8749V15.1249C40.3125 9.31234 35.4759 4.58325 29.5312 4.58325H15.4687ZM31.875 10.9999C32.9109 10.9999 33.75 11.8203 33.75 12.8333C33.75 13.8453 32.9109 14.6666 31.875 14.6666C30.8391 14.6666 30 13.8453 30 12.8333C30 11.8203 30.8391 10.9999 31.875 10.9999ZM22.5 12.8333C27.6694 12.8333 31.875 16.9454 31.875 21.9999C31.875 27.0544 27.6694 31.1666 22.5 31.1666C17.3306 31.1666 13.125 27.0544 13.125 21.9999C13.125 16.9454 17.3306 12.8333 22.5 12.8333ZM22.5 15.5833C21.6382 15.5833 20.7848 15.7492 19.9886 16.0717C19.1924 16.3942 18.469 16.8668 17.8596 17.4627C17.2502 18.0585 16.7668 18.7659 16.437 19.5444C16.1072 20.3229 15.9375 21.1573 15.9375 21.9999C15.9375 22.8426 16.1072 23.677 16.437 24.4555C16.7668 25.234 17.2502 25.9413 17.8596 26.5372C18.469 27.133 19.1924 27.6057 19.9886 27.9281C20.7848 28.2506 21.6382 28.4166 22.5 28.4166C23.3618 28.4166 24.2152 28.2506 25.0114 27.9281C25.8076 27.6057 26.531 27.133 27.1404 26.5372C27.7498 25.9413 28.2332 25.234 28.563 24.4555C28.8928 23.677 29.0625 22.8426 29.0625 21.9999C29.0625 21.1573 28.8928 20.3229 28.563 19.5444C28.2332 18.7659 27.7498 18.0585 27.1404 17.4627C26.531 16.8668 25.8076 16.3942 25.0114 16.0717C24.2152 15.7492 23.3618 15.5833 22.5 15.5833Z" fill="white"/>
</svg>
