<svg width="60" height="60" viewBox="0 0 60 60" fill="none" xmlns="http://www.w3.org/2000/svg">
<path d="M30 9.375C41.3906 9.375 50.625 18.6094 50.625 30C50.625 41.3906 41.3906 50.625 30 50.625C18.6094 50.625 9.375 41.3906 9.375 30C9.375 18.6094 18.6094 9.375 30 9.375ZM37.1147 38.4075C37.4934 37.2441 39.2719 25.6434 39.4903 23.3569C39.5569 22.665 39.3375 22.2047 38.91 21.9984C38.3916 21.75 37.6247 21.8737 36.7331 22.1953C35.5116 22.6359 19.8975 29.265 18.9956 29.6494C18.1406 30.0131 17.3316 30.4088 17.3316 30.9834C17.3316 31.3875 17.5716 31.6144 18.2316 31.8497C18.9178 32.0944 20.6475 32.6184 21.6703 32.9006C22.6547 33.1725 23.7731 32.9362 24.4012 32.5462C25.0659 32.1328 32.7459 26.9953 33.2962 26.5444C33.8466 26.0944 34.2862 26.6709 33.8362 27.1219C33.3862 27.5719 28.1156 32.6878 27.42 33.3966C26.5753 34.2563 27.1744 35.1478 27.7416 35.505C28.3875 35.9128 33.0375 39.0309 33.7378 39.5316C34.4381 40.0322 35.1478 40.2591 35.7984 40.2591C36.4491 40.2581 36.7913 39.4012 37.1147 38.4075Z" fill="white"/>
</svg>
